<svg width="356" height="50" viewBox="0 0 356 50" fill="none" xmlns="http://www.w3.org/2000/svg">
<path d="M0 24.8446C0 11.2377 11.0306 0.207031 24.6376 0.207031H284.678C298.285 0.207031 309.316 11.2377 309.316 24.8446C309.316 38.4516 298.285 49.4822 284.678 49.4822H24.6376C11.0306 49.4822 0 38.4516 0 24.8446Z" fill="#FAF5F6"/>
<path d="M16.4141 32.9192V16.6873H20.8198L24.4372 25.3598C25.1793 27.238 25.5503 28.6525 25.5503 28.6525C25.5503 28.6525 25.9213 27.238 26.6865 25.383L30.3039 16.6873H34.5937V32.9192H31.4401V24.4786C31.4401 22.4612 31.5329 20.9772 31.5329 20.9772C31.5329 20.9772 31.0459 22.3917 30.3039 24.2467L26.7097 32.9192H24.2981L20.7039 24.2467C19.9619 22.3917 19.4981 21.0004 19.4981 21.0004C19.4981 21.0004 19.5677 22.4612 19.5677 24.4786V32.9192H16.4141Z" fill="#E60026"/>
<path d="M37.3778 32.9192V16.6873H48.3922V19.3772H40.5314V23.1337H46.885V25.8235H40.5314V30.2293H48.485V32.9192H37.3778Z" fill="#E60026"/>
<path d="M50.4837 32.9192V16.6873H55.933C60.3851 16.6873 64.2112 19.4004 64.2112 24.8033C64.2112 30.1829 60.3851 32.9192 55.933 32.9192H50.4837ZM53.6373 30.2293H55.562C58.5532 30.2293 61.0576 28.5366 61.0576 24.8033C61.0576 21.0699 58.5532 19.3772 55.562 19.3772H53.6373V30.2293Z" fill="#E60026"/>
<path d="M66.2844 32.9192V16.6873H69.438V32.9192H66.2844Z" fill="#E60026"/>
<path d="M79.5858 33.1047C75.0177 33.1047 71.5163 30.067 71.5163 24.8033C71.5163 19.5627 74.9481 16.5018 79.5858 16.5018C83.3423 16.5018 86.0785 18.4033 86.7046 21.7424L83.5278 22.2989C83.2264 20.4438 81.6264 19.1917 79.5858 19.1917C76.7336 19.1917 74.6699 21.2554 74.6699 24.8033C74.6699 28.3511 76.7336 30.4148 79.5858 30.4148C81.8351 30.4148 83.3423 29.0699 83.6438 27.1221L86.7742 27.5627C86.4264 30.8554 83.4814 33.1047 79.5858 33.1047Z" fill="#E60026"/>
<path d="M88.6466 32.9192V16.6873H99.6611V19.3772H91.8002V23.1337H98.1539V25.8235H91.8002V30.2293H99.7539V32.9192H88.6466Z" fill="#E60026"/>
<path d="M101.753 32.9192V16.6873H104.906V30.2293H112.535V32.9192H101.753Z" fill="#E60026"/>
<path d="M114.134 32.9192V16.6873H117.287V30.2293H124.916V32.9192H114.134Z" fill="#E60026"/>
<path d="M130.473 32.9192V16.6873H137.081C140.351 16.6873 142.461 18.6352 142.461 21.6265C142.461 24.6177 140.351 26.5888 137.081 26.5888H133.626V32.9192H130.473ZM133.626 23.8989H136.757C138.333 23.8989 139.307 22.9946 139.307 21.6265C139.307 20.2583 138.333 19.3772 136.757 19.3772H133.626V23.8989Z" fill="#E60026"/>
<path d="M144.122 32.9192V16.6873H147.276V30.2293H154.905V32.9192H144.122Z" fill="#E60026"/>
<path d="M162.226 33.1047C158.261 33.1047 155.594 30.6235 155.594 26.9598V16.6873H158.748V26.9598C158.748 29.0003 160.162 30.4148 162.226 30.4148C164.29 30.4148 165.681 29.0003 165.681 26.9598V16.6873H168.858V26.9598C168.858 30.6235 166.191 33.1047 162.226 33.1047Z" fill="#E60026"/>
<path d="M177.263 33.1047C173.854 33.1047 171.234 31.2496 170.468 28.0496L173.344 27.2148C173.808 29.2322 175.338 30.4148 177.263 30.4148C178.747 30.4148 179.929 29.7656 179.929 28.3047C179.929 25.0351 171.28 26.9598 171.28 21.0931C171.28 18.3337 173.808 16.5018 176.892 16.5018C179.906 16.5018 182.318 18.125 182.967 20.6062L180.184 21.696C179.721 20.0728 178.515 19.1917 176.868 19.1917C175.384 19.1917 174.434 19.8641 174.434 20.954C174.434 23.9221 183.106 21.8815 183.106 28.096C183.106 31.3192 180.532 33.1047 177.263 33.1047Z" fill="#E60026"/>
<path d="M189.775 32.9192V16.6873H196.384C199.653 16.6873 201.763 18.6352 201.763 21.6265C201.763 24.6177 199.653 26.5888 196.384 26.5888H192.929V32.9192H189.775ZM192.929 23.8989H196.059C197.636 23.8989 198.61 22.9946 198.61 21.6265C198.61 20.2583 197.636 19.3772 196.059 19.3772H192.929V23.8989Z" fill="#E60026"/>
<path d="M203.424 32.9192V16.6873H209.755C212.816 16.6873 214.903 18.5888 214.903 21.4641C214.903 23.296 213.882 24.896 212.236 25.7076L216.549 32.9192H212.885L209.106 26.2641H206.578V32.9192H203.424ZM206.578 23.5743H209.221C210.775 23.5743 211.749 22.7163 211.749 21.4641C211.749 20.212 210.775 19.3772 209.221 19.3772H206.578V23.5743Z" fill="#E60026"/>
<path d="M217.866 32.9192V16.6873H228.881V19.3772H221.02V23.1337H227.374V25.8235H221.02V30.2293H228.974V32.9192H217.866Z" fill="#E60026"/>
<path d="M230.972 32.9192V16.6873H235.378L238.995 25.3598C239.737 27.238 240.108 28.6525 240.108 28.6525C240.108 28.6525 240.48 27.238 241.245 25.383L244.862 16.6873H249.152V32.9192H245.998V24.4786C245.998 22.4612 246.091 20.9772 246.091 20.9772C246.091 20.9772 245.604 22.3917 244.862 24.2467L241.268 32.9192H238.856L235.262 24.2467C234.52 22.3917 234.056 21.0004 234.056 21.0004C234.056 21.0004 234.126 22.4612 234.126 24.4786V32.9192H230.972Z" fill="#E60026"/>
<path d="M251.936 32.9192V16.6873H255.09V32.9192H251.936Z" fill="#E60026"/>
<path d="M264.356 33.1047C260.391 33.1047 257.724 30.6235 257.724 26.9598V16.6873H260.878V26.9598C260.878 29.0003 262.292 30.4148 264.356 30.4148C266.42 30.4148 267.811 29.0003 267.811 26.9598V16.6873H270.988V26.9598C270.988 30.6235 268.321 33.1047 264.356 33.1047Z" fill="#E60026"/>
<path d="M273.619 32.9192V16.6873H278.025L281.642 25.3598C282.384 27.238 282.755 28.6525 282.755 28.6525C282.755 28.6525 283.126 27.238 283.891 25.383L287.509 16.6873H291.799V32.9192H288.645V24.4786C288.645 22.4612 288.738 20.9772 288.738 20.9772C288.738 20.9772 288.251 22.3917 287.509 24.2467L283.915 32.9192H281.503L277.909 24.2467C277.167 22.3917 276.703 21.0004 276.703 21.0004C276.703 21.0004 276.773 22.4612 276.773 24.4786V32.9192H273.619Z" fill="#E60026"/>
<path d="M310.729 10.2651C315.244 4.04498 322.573 0 330.847 0C344.568 0 355.692 11.1233 355.692 24.8446C355.692 38.566 344.568 49.6893 330.847 49.6893C322.573 49.6893 315.244 45.6442 310.729 39.4239C309.394 37.5843 305.923 37.5845 304.588 39.4239L304.588 10.2651C305.923 12.1047 309.394 12.1047 310.729 10.2651Z" fill="#FAF5F6"/>
<path d="M340.968 20.4781H335.621V15.1343C335.621 12.7274 333.667 10.766 331.26 10.766C328.843 10.766 326.892 12.7274 326.892 15.1343V20.4781H321.549C319.139 20.4781 317.182 22.4289 317.182 24.8499C317.182 27.2569 319.139 29.2182 321.549 29.2182H326.892V34.5514C326.892 36.9654 328.843 38.9233 331.26 38.9233C333.667 38.9233 335.621 36.9654 335.621 34.5514V29.2182H340.968C343.381 29.2182 345.339 27.2569 345.339 24.8499C345.339 22.4289 343.381 20.4781 340.968 20.4781Z" fill="#E60026"/>
</svg>
