<svg width="77" height="40" viewBox="0 0 77 40" fill="none" xmlns="http://www.w3.org/2000/svg">
<path d="M0 19.9184C0 9.00944 8.84345 0 19.7524 0C30.6613 0 39.5048 9.00944 39.5048 19.9184C39.5048 30.8273 30.6613 39.8368 19.7524 39.8368C8.84345 39.8368 0 30.8273 0 19.9184Z" fill="#E60026"/>
<path d="M10.9451 26.951V11.1491H15.2342L18.7558 19.5919C19.4782 21.4204 19.8394 22.7974 19.8394 22.7974C19.8394 22.7974 20.2006 21.4204 20.9455 19.6144L24.4671 11.1491H28.6433V26.951H25.5732V18.7341C25.5732 16.7701 25.6635 15.3254 25.6635 15.3254C25.6635 15.3254 25.1894 16.7024 24.4671 18.5083L20.9681 26.951H18.6204L15.1214 18.5083C14.399 16.7024 13.9475 15.3479 13.9475 15.3479C13.9475 15.3479 14.0152 16.7701 14.0152 18.7341V26.951H10.9451Z" fill="#FAF5F6"/>
<path d="M40.6365 8.22973C44.2563 3.24293 50.1318 0 56.7653 0C67.7659 0 76.6836 8.91776 76.6836 19.9184C76.6836 30.919 67.7659 39.8368 56.7653 39.8368C50.1317 39.8368 44.2564 36.5937 40.6366 31.6069C39.5661 30.132 36.7835 30.1321 35.7129 31.6069L35.713 8.22973C36.7836 9.70456 39.566 9.70456 40.6365 8.22973Z" fill="#E60026"/>
<path d="M64.5481 16.4177H60.2617V12.1335C60.2617 10.2038 58.6951 8.63135 56.7656 8.63135C54.8277 8.63135 53.2639 10.2038 53.2639 12.1335V16.4177H48.9802C47.048 16.4177 45.4785 17.9817 45.4785 19.9227C45.4785 21.8524 47.048 23.4248 48.9802 23.4248H53.2639V27.7005C53.2639 29.6359 54.8277 31.2055 56.7656 31.2055C58.6951 31.2055 60.2617 29.6359 60.2617 27.7005V23.4248H64.5481C66.4832 23.4248 68.0527 21.8524 68.0527 19.9227C68.0527 17.9817 66.4832 16.4177 64.5481 16.4177Z" fill="#FAF5F6"/>
</svg>
